<svg id="visual" viewBox="0 0 1920 1080" width="1920" height="1080" xmlns="http://www.w3.org/2000/svg" xmlns:xlink="http://www.w3.org/1999/xlink" version="1.1"><path d="M0 929L320 929L320 937L640 937L640 905L960 905L960 930L1280 930L1280 934L1600 934L1600 935L1920 935L1920 938L1920 1081L1920 1081L1600 1081L1600 1081L1280 1081L1280 1081L960 1081L960 1081L640 1081L640 1081L320 1081L320 1081L0 1081Z" fill="#213268"></path><path d="M0 963L320 963L320 989L640 989L640 987L960 987L960 956L1280 956L1280 998L1600 998L1600 996L1920 996L1920 955L1920 1081L1920 1081L1600 1081L1600 1081L1280 1081L1280 1081L960 1081L960 1081L640 1081L640 1081L320 1081L320 1081L0 1081Z" fill="#122148"></path><path d="M0 1022L320 1022L320 1034L640 1034L640 1043L960 1043L960 1010L1280 1010L1280 1033L1600 1033L1600 1027L1920 1027L1920 1039L1920 1081L1920 1081L1600 1081L1600 1081L1280 1081L1280 1081L960 1081L960 1081L640 1081L640 1081L320 1081L320 1081L0 1081Z" fill="#070f2b"></path></svg>