<svg id="visual" viewBox="0 0 900 600" width="900" height="600" xmlns="http://www.w3.org/2000/svg" xmlns:xlink="http://www.w3.org/1999/xlink" version="1.1"><path d="M0 74L100 74L100 77L200 77L200 76L300 76L300 86L400 86L400 84L500 84L500 75L600 75L600 65L700 65L700 76L800 76L800 93L900 93L900 81L900 0L900 0L800 0L800 0L700 0L700 0L600 0L600 0L500 0L500 0L400 0L400 0L300 0L300 0L200 0L200 0L100 0L100 0L0 0Z" fill="#213268"></path><path d="M0 41L100 41L100 44L200 44L200 54L300 54L300 64L400 64L400 43L500 43L500 47L600 47L600 49L700 49L700 67L800 67L800 62L900 62L900 67L900 0L900 0L800 0L800 0L700 0L700 0L600 0L600 0L500 0L500 0L400 0L400 0L300 0L300 0L200 0L200 0L100 0L100 0L0 0Z" fill="#122148"></path><path d="M0 38L100 38L100 34L200 34L200 27L300 27L300 19L400 19L400 20L500 20L500 26L600 26L600 40L700 40L700 37L800 37L800 25L900 25L900 31L900 0L900 0L800 0L800 0L700 0L700 0L600 0L600 0L500 0L500 0L400 0L400 0L300 0L300 0L200 0L200 0L100 0L100 0L0 0Z" fill="#070f2b"></path></svg>