<svg id="visual" viewBox="0 0 1920 1080" width="1920" height="1080" xmlns="http://www.w3.org/2000/svg" xmlns:xlink="http://www.w3.org/1999/xlink" version="1.1"><path d="M0 967L83 967L83 966L167 966L167 969L250 969L250 929L334 929L334 968L417 968L417 915L501 915L501 929L584 929L584 920L668 920L668 911L751 911L751 934L835 934L835 944L918 944L918 907L1002 907L1002 956L1085 956L1085 924L1169 924L1169 933L1252 933L1252 975L1336 975L1336 935L1419 935L1419 908L1503 908L1503 940L1586 940L1586 984L1670 984L1670 912L1753 912L1753 914L1837 914L1837 974L1920 974L1920 957L1920 1081L1920 1081L1837 1081L1837 1081L1753 1081L1753 1081L1670 1081L1670 1081L1586 1081L1586 1081L1503 1081L1503 1081L1419 1081L1419 1081L1336 1081L1336 1081L1252 1081L1252 1081L1169 1081L1169 1081L1085 1081L1085 1081L1002 1081L1002 1081L918 1081L918 1081L835 1081L835 1081L751 1081L751 1081L668 1081L668 1081L584 1081L584 1081L501 1081L501 1081L417 1081L417 1081L334 1081L334 1081L250 1081L250 1081L167 1081L167 1081L83 1081L83 1081L0 1081Z" fill="#213268"></path><path d="M0 1011L83 1011L83 1008L167 1008L167 980L250 980L250 1000L334 1000L334 1000L417 1000L417 955L501 955L501 995L584 995L584 987L668 987L668 954L751 954L751 962L835 962L835 1016L918 1016L918 1005L1002 1005L1002 979L1085 979L1085 1013L1169 1013L1169 956L1252 956L1252 956L1336 956L1336 980L1419 980L1419 981L1503 981L1503 1007L1586 1007L1586 965L1670 965L1670 966L1753 966L1753 952L1837 952L1837 1004L1920 1004L1920 974L1920 1081L1920 1081L1837 1081L1837 1081L1753 1081L1753 1081L1670 1081L1670 1081L1586 1081L1586 1081L1503 1081L1503 1081L1419 1081L1419 1081L1336 1081L1336 1081L1252 1081L1252 1081L1169 1081L1169 1081L1085 1081L1085 1081L1002 1081L1002 1081L918 1081L918 1081L835 1081L835 1081L751 1081L751 1081L668 1081L668 1081L584 1081L584 1081L501 1081L501 1081L417 1081L417 1081L334 1081L334 1081L250 1081L250 1081L167 1081L167 1081L83 1081L83 1081L0 1081Z" fill="#122148"></path><path d="M0 1012L83 1012L83 999L167 999L167 1037L250 1037L250 1001L334 1001L334 1011L417 1011L417 1007L501 1007L501 1029L584 1029L584 1034L668 1034L668 1038L751 1038L751 1037L835 1037L835 1032L918 1032L918 1043L1002 1043L1002 1002L1085 1002L1085 1031L1169 1031L1169 1012L1252 1012L1252 1045L1336 1045L1336 1043L1419 1043L1419 1006L1503 1006L1503 1038L1586 1038L1586 1017L1670 1017L1670 1025L1753 1025L1753 1026L1837 1026L1837 1032L1920 1032L1920 1019L1920 1081L1920 1081L1837 1081L1837 1081L1753 1081L1753 1081L1670 1081L1670 1081L1586 1081L1586 1081L1503 1081L1503 1081L1419 1081L1419 1081L1336 1081L1336 1081L1252 1081L1252 1081L1169 1081L1169 1081L1085 1081L1085 1081L1002 1081L1002 1081L918 1081L918 1081L835 1081L835 1081L751 1081L751 1081L668 1081L668 1081L584 1081L584 1081L501 1081L501 1081L417 1081L417 1081L334 1081L334 1081L250 1081L250 1081L167 1081L167 1081L83 1081L83 1081L0 1081Z" fill="#070f2b"></path></svg>