<svg width="60" height="60" viewBox="0 0 60 60" fill="none" xmlns="http://www.w3.org/2000/svg">
<path d="M27.6889 2.09284C21.8802 2.70495 17.2331 4.45382 13.0109 7.61429C11.9366 8.41378 9.71298 10.5374 9.00094 11.4243C8.22644 12.3987 8.41382 13.3106 9.41318 13.473C9.87538 13.5355 9.90036 13.523 11.5368 11.8616C13.2857 10.0752 15.1345 8.62614 16.9333 7.58931C25.9151 2.48009 37.2078 3.11718 45.465 9.18828C46.227 9.75042 47.5137 10.8872 48.4506 11.8366C49.5374 12.9484 50.187 13.5105 50.3618 13.5105C50.7241 13.5105 51.3112 13.1857 51.4112 12.9484C51.6985 12.1863 51.3112 11.5867 49.2251 9.56304C45.2027 5.67804 40.1684 3.2421 34.2472 2.33019C32.9855 2.14281 28.7507 1.98041 27.6889 2.09284Z" fill="#FBFBFB"/>
<path d="M27.5016 8.08906C24.8159 8.42634 21.8428 9.35075 19.6317 10.5375C18.5074 11.1496 16.8835 12.2239 16.6711 12.4987C16.4088 12.836 16.4712 13.5605 16.796 13.8603C17.2957 14.335 17.7829 14.2226 19.107 13.3732C21.2557 11.9741 23.804 10.9372 26.3149 10.4251C28.0388 10.0753 32.2236 10.1128 33.9475 10.4875C36.4834 11.0372 38.7444 11.9741 40.943 13.3981C42.2297 14.2351 42.7543 14.335 43.2165 13.8479C43.5288 13.5231 43.5788 12.8235 43.329 12.4987C43.1291 12.2239 41.5051 11.1621 40.3684 10.5375C38.5945 9.5756 36.3085 8.77611 33.9975 8.3264C32.9606 8.11404 28.5634 7.96414 27.5016 8.08906Z" fill="#FBFBFB"/>
<path d="M11.2622 16.0715C9.62571 16.4462 8.07671 17.5205 7.3147 18.8322C5.87812 21.2681 6.17793 24.4161 8.03923 26.4398C8.38901 26.827 8.65134 27.1518 8.62635 27.1768C8.60137 27.1893 8.37651 27.2892 8.13917 27.3767C5.81566 28.2511 3.07992 30.9244 2.26794 33.073C1.56839 34.9593 2.28043 37.2204 3.91688 38.2947C5.11611 39.0942 5.41592 39.1191 11.7743 39.1191H17.4707L17.5456 39.8062C17.708 41.3302 18.8573 42.9167 20.3688 43.6537L21.1933 44.0535H30.0001H38.8069L39.6439 43.6412C40.1061 43.4164 40.7557 42.9667 41.068 42.6419C41.7925 41.9298 42.3921 40.6806 42.4671 39.7812L42.5171 39.1191H48.2259C54.5968 39.1191 54.8841 39.0942 56.0833 38.2947C57.7198 37.2204 58.4318 34.9593 57.7323 33.073C56.9203 30.9244 54.1846 28.2511 51.861 27.3767C51.6237 27.2892 51.3988 27.1893 51.3739 27.1768C51.3489 27.1518 51.6112 26.827 51.961 26.4398C53.51 24.7534 53.9972 22.2925 53.2352 20.0814C52.8729 19.0071 52.4856 18.4075 51.6237 17.5955C49.2127 15.2845 45.0779 15.3719 42.7169 17.7704C41.9049 18.5948 41.3428 19.6941 41.1055 20.8559C40.9056 21.9427 41.018 23.6416 41.3678 24.5035C41.6801 25.2905 42.592 26.6272 43.0167 26.902C43.3041 27.0894 43.2916 27.1019 42.4421 27.4891C40.7932 28.2386 39.2442 29.4753 38.0449 31.0119L37.5078 31.7239L36.2211 31.0743C35.5091 30.712 34.8095 30.3873 34.6471 30.3373C34.3723 30.2748 34.3973 30.2374 34.9969 29.6752C36.4585 28.3136 37.2454 26.4773 37.2454 24.4661C37.2454 22.23 36.6084 20.6185 35.1843 19.1945C33.7602 17.7704 32.1612 17.1333 30.0251 17.1333C27.8515 17.1333 26.2275 17.7704 24.8159 19.1945C23.3919 20.6185 22.7548 22.23 22.7548 24.4161C22.7548 26.4773 23.5418 28.3011 25.0033 29.6752C25.6029 30.2374 25.6279 30.2748 25.3531 30.3373C25.1907 30.3873 24.4787 30.712 23.7666 31.0743C23.0421 31.4491 22.455 31.7239 22.4425 31.7114C22.43 31.6989 22.2301 31.3991 21.9803 31.0618C20.9934 29.7002 19.1571 28.2137 17.5206 27.4766C16.7087 27.1019 16.6962 27.0894 16.9835 26.902C17.4082 26.6272 18.3201 25.2905 18.6324 24.5035C18.9822 23.6416 19.0946 21.9427 18.8947 20.8559C18.4575 18.6573 16.946 16.9459 14.7974 16.2339C13.823 15.9216 12.274 15.8466 11.2622 16.0715ZM14.4476 18.4324C15.2721 18.8072 16.109 19.6192 16.5213 20.4437C16.946 21.3181 16.9585 23.042 16.5338 23.8914C16.0841 24.8158 15.447 25.4529 14.5351 25.9026C13.798 26.2649 13.5857 26.3149 12.6987 26.3149C11.4495 26.3149 10.5751 25.9276 9.71315 25.0032C8.85121 24.0788 8.57639 23.4042 8.57639 22.1925C8.57639 20.9059 8.96364 20.0564 9.96299 19.1445C11.2122 17.9952 12.9236 17.7329 14.4476 18.4324ZM48.5257 18.2576C49.575 18.5823 50.5744 19.4568 51.0741 20.4811C51.3739 21.0807 51.4238 21.3431 51.4238 22.1925C51.4238 23.4042 51.149 24.0788 50.2871 25.0032C49.4251 25.9276 48.5507 26.3149 47.3015 26.3149C46.4146 26.3149 46.2022 26.2649 45.4652 25.9026C44.5532 25.4529 43.9162 24.8158 43.4664 23.8914C43.2291 23.4292 43.1791 23.1044 43.1791 22.1925C43.1791 20.8684 43.454 20.1563 44.3159 19.2944C45.4901 18.1201 46.9267 17.7704 48.5257 18.2576ZM32.2612 19.7191C34.2224 20.681 35.2217 22.4798 35.0968 24.7409C34.9219 27.7265 32.1112 29.9375 29.1631 29.3879C27.3768 29.0631 26.1651 28.1762 25.4156 26.6522C24.9534 25.7278 24.9409 25.6653 24.9409 24.3287C24.9409 23.017 24.9658 22.8921 25.3406 22.1176C25.7903 21.1932 26.5148 20.4062 27.3393 19.919C28.2512 19.3818 28.8384 19.2569 30.2 19.2944C31.3243 19.3194 31.5366 19.3693 32.2612 19.7191ZM15.1222 28.8757C16.921 29.3754 18.7573 30.5372 19.8691 31.8738C20.856 33.0605 20.856 33.0356 20.1814 33.7101C19.5443 34.3847 18.4825 35.8088 18.1202 36.5208L17.8829 36.9955H12.0991C8.46396 36.9955 6.15294 36.9455 5.85314 36.8581C4.37908 36.4584 3.7295 34.8219 4.46653 33.4228C4.96621 32.4734 6.04052 31.2117 6.91495 30.5621C9.37587 28.7133 12.324 28.1012 15.1222 28.8757ZM49.6375 28.8632C51.4988 29.3379 53.3726 30.5372 54.5468 31.9862C55.796 33.5352 56.1083 34.5221 55.6836 35.5339C55.4712 36.0711 54.7342 36.6957 54.1471 36.8581C53.8473 36.9455 51.5487 36.9955 47.9136 36.9955H42.1423L41.6301 36.1336C41.0805 35.1967 40.4059 34.3097 39.6814 33.5852L39.2192 33.1105L39.544 32.6108C40.9056 30.5746 43.3915 29.0381 46.0523 28.6134C46.9392 28.476 48.5382 28.5884 49.6375 28.8632ZM32.3486 31.9488C34.4348 32.3735 36.321 33.3479 37.8326 34.7844C38.7695 35.6838 39.9687 37.3328 40.231 38.1073C40.4559 38.7819 40.3934 39.6188 40.0686 40.3059C39.7189 41.0554 39.3691 41.3927 38.6196 41.73C38.0699 41.9798 37.8451 41.9923 30.0001 41.9923H21.9428L21.3182 41.6925C19.7817 40.9804 19.1821 39.2441 19.9566 37.7075C21.3931 34.8344 24.2913 32.6608 27.6266 31.9488C28.7509 31.6989 31.1619 31.6989 32.3486 31.9488Z" fill="#FBFBFB"/>
<path d="M5.66601 42.267C5.2163 42.7542 5.2163 43.104 5.65352 43.9285C7.50233 47.4012 10.7752 50.9489 14.2605 53.26C15.722 54.2343 18.5202 55.6459 20.1317 56.2331C23.7419 57.5572 28.1391 58.1693 31.9366 57.8695C36.1714 57.5447 39.4193 56.6578 43.0045 54.8464C47.1518 52.7478 50.6121 49.6623 53.2104 45.7898C54.3347 44.1034 54.7844 43.1914 54.6845 42.8042C54.5596 42.292 54.1723 41.9922 53.6352 41.9922C53.0605 41.9922 52.9481 42.0921 52.1111 43.4788C49.5878 47.6261 45.8402 51.0614 41.4305 53.2225C36.0964 55.8583 29.8754 56.5703 24.0917 55.2212C17.4334 53.6597 11.3998 49.2875 7.88958 43.4788C7.5398 42.9041 7.14006 42.3295 7.00265 42.2046C6.62789 41.9048 5.9908 41.9298 5.66601 42.267Z" fill="#FBFBFB"/>
<path d="M12.8238 42.3045C12.1867 42.9291 12.4241 43.4913 14.0855 45.2276C17.221 48.5255 21.0935 50.6617 25.6905 51.636C26.9148 51.8859 27.3895 51.9233 30.0627 51.9233C32.6985 51.9108 33.2232 51.8859 34.3725 51.636C38.932 50.6492 42.8045 48.5005 45.915 45.2276C47.1642 43.916 47.489 43.4538 47.489 42.9541C47.489 42.4419 46.9893 41.9922 46.4147 41.9922C46.015 41.9922 45.8776 42.0797 45.4403 42.5794C43.1168 45.3026 40.4685 47.2513 37.5579 48.4131C30.1627 51.3237 21.6307 49.7123 16.2591 44.3657C15.6095 43.7161 14.835 42.9166 14.5602 42.5794C14.123 42.0797 13.9856 41.9922 13.5858 41.9922C13.261 41.9922 13.0362 42.0797 12.8238 42.3045Z" fill="#FBFBFB"/>
</svg>
