<svg width="60" height="60" viewBox="0 0 60 60" fill="none" xmlns="http://www.w3.org/2000/svg">
<g clip-path="url(#clip0_732_478)">
<path d="M14.9766 3.83203L14.9415 6.73828L7.85164 8.23828C3.94929 9.07031 0.750074 9.76172 0.726636 9.78516C0.714918 9.79688 2.09773 16.3945 3.80867 24.4453C5.51961 32.4844 6.91414 39.1289 6.91414 39.2109C6.91414 39.3047 6.5157 39.3633 5.60164 39.3984C4.44148 39.4336 4.19539 39.4805 3.57429 39.7852C2.68367 40.2188 1.78132 41.1094 1.33601 42.0117C1.01961 42.668 0.996168 42.8086 0.996168 44.0625C0.996168 45.3164 1.01961 45.457 1.33601 46.1133C1.78132 47.0156 2.67195 47.9062 3.57429 48.3516L4.27742 48.6914L11.9884 48.7266L19.6876 48.7617V47.8125V46.875H21.668H23.6602L23.7891 47.543C24.6094 51.5156 27.7032 55.4531 31.5118 57.4102C33.8087 58.5938 35.7891 59.0625 38.4376 59.0625C41.6251 59.0625 44.2618 58.2656 46.9337 56.5078C47.9884 55.8047 50.1798 53.6133 50.8829 52.5586C52.0782 50.7422 52.922 48.668 53.2735 46.6406C53.5313 45.1523 53.4493 41.9297 53.1212 40.7109L52.8985 39.8789L56.1095 24.8438C57.8673 16.582 59.2852 9.79688 59.2735 9.77344C59.2501 9.76172 56.0509 9.07031 52.1485 8.23828L45.0587 6.72656L45.0235 3.83203L45.0001 0.9375H30.0001H15.0001L14.9766 3.83203ZM43.1251 16.2773V29.7305L42.1876 29.4961L41.2501 29.2617V26.3438V23.4375H30.0001H18.7501V30.4688V37.5H21.8087C24.211 37.5 24.8555 37.5352 24.8087 37.6406C24.4454 38.4727 24.0118 39.7031 23.836 40.4062L23.6251 41.25H21.6563H19.6876V40.3125V39.375H18.2813H16.8751V21.0938V2.8125H30.0001H43.1251V16.2773ZM15.0001 10.0078V11.2266L14.5665 11.1094C14.3204 11.0391 13.6876 11.0156 13.1719 11.0391C11.8946 11.1094 10.9454 11.5547 10.043 12.5391C9.12898 13.5234 8.85945 14.2617 8.84773 15.7617C8.84773 16.8398 8.88289 17.0039 9.21101 17.707C9.57429 18.457 10.3594 19.3945 10.8399 19.6641C11.0626 19.7812 11.0509 19.8164 10.5704 20.2148C9.94929 20.7539 9.11726 21.9141 8.74226 22.7695C8.3907 23.5547 8.08601 24.9727 8.08601 25.8047C8.08601 26.3672 8.56648 29.1094 8.68367 29.2266C8.7071 29.25 10.0548 28.9922 11.6602 28.6523C13.2774 28.3008 14.6837 28.0195 14.8009 28.0078C14.9766 28.0078 15.0001 28.125 15.0001 28.8633V29.7305L12.0469 30.3516C10.418 30.6914 9.07039 30.9844 9.05867 30.9961C9.04695 30.9961 9.42195 32.8477 9.90242 35.1094C10.3829 37.3594 10.7813 39.2344 10.7813 39.2812C10.7813 39.3398 10.3946 39.375 9.91414 39.375H9.03523L8.84773 38.5195C8.34382 36.2227 3.07039 11.3086 3.08211 11.2969C3.1407 11.2734 14.7305 8.8125 14.8594 8.80078C14.9649 8.78906 15.0001 9.10547 15.0001 10.0078ZM51.211 10.0898C54.3399 10.7461 56.9063 11.2852 56.918 11.2969C56.9298 11.3086 51.7852 35.6133 51.6212 36.3164C51.5626 36.5625 51.4805 36.4922 50.9415 35.6836C49.7462 33.8789 47.5079 31.8281 45.7384 30.9023L45.0001 30.5273V19.6406V8.76562L45.2696 8.82422C45.4102 8.85938 48.0821 9.42188 51.211 10.0898ZM14.6954 13.2773L15.0001 13.4766V15.75V18.0234L14.5665 18.2344C13.5587 18.7148 12.2462 18.3867 11.461 17.4609C10.2891 16.1016 10.7227 14.0625 12.3516 13.2773C13.0665 12.9375 14.1798 12.9375 14.6954 13.2773ZM15.0001 23.0742V25.8867L14.1563 26.0625C13.6876 26.168 12.6094 26.4023 11.754 26.5781L10.2071 26.918L10.1251 26.2852C10.0196 25.4414 10.2657 24.2695 10.7462 23.3086C11.4962 21.7969 13.2891 20.5078 14.918 20.2852C14.9649 20.2734 15.0001 21.5391 15.0001 23.0742ZM39.3751 27.1875V29.0625H38.0977C35.2618 29.0625 32.543 29.918 29.9532 31.6172C28.9454 32.2852 27.1641 33.9727 26.4844 34.9102L25.9571 35.625H23.2969H20.6251V30.4688V25.3125H30.0001H39.3751V27.1875ZM39.8438 31.1016C40.3243 31.1367 41.2149 31.3008 41.8243 31.4648C46.2657 32.6602 49.8048 36.2109 51.0704 40.7461C51.3634 41.8008 51.3868 42.0586 51.3868 44.0625C51.3868 46.0664 51.3634 46.3242 51.0704 47.3789C49.8048 51.9141 46.2423 55.4766 41.8009 56.6602C34.8634 58.5117 27.7618 54.3867 25.8048 47.3789C25.5118 46.3242 25.4884 46.0664 25.4884 44.0625C25.4884 42.0586 25.5118 41.8008 25.8048 40.7461C27.0821 36.1875 30.6212 32.6484 35.1212 31.4531C36.1876 31.1602 38.004 30.9375 38.672 31.0078C38.836 31.0312 39.3634 31.0664 39.8438 31.1016ZM15.0001 35.5664V39.3867L13.9219 39.3516L12.8555 39.3164L12.1759 36.1523C11.8009 34.4062 11.4962 32.8828 11.4844 32.7539C11.4844 32.5312 11.6602 32.4727 13.1602 32.1445C14.0743 31.9453 14.8594 31.7812 14.918 31.7695C14.9649 31.7695 15.0001 33.4688 15.0001 35.5664ZM17.8126 44.0625V46.8867L11.461 46.8516C5.62507 46.8164 5.06257 46.793 4.62898 46.6055C2.84773 45.7969 2.35554 43.5703 3.66804 42.2109C4.13679 41.7188 4.60554 41.4609 5.21492 41.3555C5.47273 41.3203 8.41414 41.2734 11.754 41.2617L17.8126 41.25V44.0625ZM23.4376 44.0625V45H21.5626H19.6876V44.0625V43.125H21.5626H23.4376V44.0625Z" fill="#FBFBFB"/>
<path d="M24.6445 4.91016C23.4141 5.36719 22.5352 6.16406 21.9375 7.38281C21.6445 7.96875 21.6211 8.14453 21.6211 9.375C21.6211 10.6172 21.6445 10.7695 21.9492 11.3555C22.125 11.707 22.4297 12.1875 22.6172 12.4219L22.9688 12.8672L22.3125 13.2422C21.3281 13.793 20.168 15.0234 19.5938 16.1367C18.9375 17.4023 18.75 18.2578 18.75 20.0625V21.5625H26.25H33.75V20.0625C33.75 18.2578 33.5625 17.4023 32.9062 16.1367C32.332 15.0234 31.1719 13.793 30.1875 13.2422L29.5312 12.8672L29.8828 12.4219C30.0703 12.1875 30.375 11.707 30.5508 11.3555C30.8555 10.7695 30.8789 10.6172 30.8789 9.375C30.8789 8.12109 30.8555 7.98047 30.5391 7.32422C30.0938 6.42188 29.2031 5.53125 28.3008 5.09766C27.6914 4.79297 27.4453 4.74609 26.4258 4.71094C25.5 4.6875 25.125 4.73438 24.6445 4.91016ZM27.2812 6.86719C28.2773 7.27734 28.9453 8.27344 28.9453 9.375C28.9453 10.8867 27.7617 12.0703 26.25 12.0703C24.7383 12.0703 23.5547 10.8867 23.5547 9.375C23.5547 8.32031 24.1523 7.39453 25.1367 6.87891C25.5938 6.63281 26.7188 6.63281 27.2812 6.86719ZM27.9492 14.4141C30.0586 15.1406 31.7578 17.2969 31.7578 19.2422V19.6875H26.25H20.7422V19.2422C20.7422 17.2852 22.5 15.0703 24.5859 14.4023C25.5234 14.1094 27.0586 14.1094 27.9492 14.4141Z" fill="#FBFBFB"/>
<path d="M35.625 5.625V6.5625H38.4375H41.25V5.625V4.6875H38.4375H35.625V5.625Z" fill="#FBFBFB"/>
<path d="M35.625 9.375V10.3125H38.4375H41.25V9.375V8.4375H38.4375H35.625V9.375Z" fill="#FBFBFB"/>
<path d="M35.625 13.125V14.0625H38.4375H41.25V13.125V12.1875H38.4375H35.625V13.125Z" fill="#FBFBFB"/>
<path d="M35.625 16.875V17.8125H38.4375H41.25V16.875V15.9375H38.4375H35.625V16.875Z" fill="#FBFBFB"/>
<path d="M35.625 20.625V21.5625H38.4375H41.25V20.625V19.6875H38.4375H35.625V20.625Z" fill="#FBFBFB"/>
<path d="M49.0547 12.3165C48.9492 12.7735 48.8672 13.2189 48.8672 13.2892C48.8672 13.3829 49.8633 13.6407 51.5391 13.9923C53.0039 14.3087 54.2578 14.59 54.3281 14.6134C54.457 14.6603 54.9023 12.797 54.7969 12.6798C54.75 12.6329 49.5117 11.4962 49.3242 11.4845C49.2773 11.4845 49.1602 11.8595 49.0547 12.3165Z" fill="#FBFBFB"/>
<path d="M48.2581 16.0781C48.1409 16.6055 48.0706 17.0508 48.0823 17.0625C48.1058 17.086 49.3479 17.3672 50.8597 17.6836C52.6761 18.082 53.6253 18.2344 53.6839 18.1524C53.7776 17.9883 54.0589 16.4063 54.0003 16.3477C53.9769 16.3242 52.8284 16.0547 51.4456 15.7617C50.0628 15.4688 48.8206 15.211 48.6917 15.1758C48.4808 15.1289 48.4339 15.2227 48.2581 16.0781Z" fill="#FBFBFB"/>
<path d="M47.6366 19.0078C47.6131 19.0898 47.5194 19.5117 47.4256 19.9453C47.2616 20.6719 47.2733 20.7422 47.4491 20.7891C47.7655 20.8828 52.6874 21.9141 52.8045 21.9141C52.9803 21.9141 53.3202 20.0273 53.1561 19.9688C52.9217 19.8867 48.0116 18.8672 47.8475 18.8672C47.7655 18.8672 47.6717 18.9375 47.6366 19.0078Z" fill="#FBFBFB"/>
<path d="M46.7109 23.3319C46.6055 23.789 46.5234 24.2343 46.5234 24.3046C46.5234 24.4218 51.5508 25.5702 51.9961 25.5468C52.0664 25.5468 52.1953 25.2421 52.2656 24.8671C52.3359 24.5038 52.4297 24.0819 52.4648 23.9413C52.5 23.7655 52.4531 23.6718 52.3008 23.6249C52.0312 23.5429 47.0977 22.4999 46.9805 22.4999C46.9336 22.4999 46.8164 22.8749 46.7109 23.3319Z" fill="#FBFBFB"/>
<path d="M45.9025 27.0936C45.797 27.621 45.715 28.0546 45.7267 28.078C45.7501 28.0897 47.004 28.371 48.5158 28.6874C50.2033 29.0507 51.2931 29.2265 51.34 29.1561C51.4455 28.9921 51.715 27.4218 51.6447 27.3515C51.6095 27.3163 46.2658 26.1327 46.1251 26.1327C46.1134 26.1327 46.0197 26.5663 45.9025 27.0936Z" fill="#FBFBFB"/>
<path d="M36.0938 32.9883C31.9102 33.9258 28.7109 36.9375 27.5156 41.0859C27.2812 41.8945 27.2461 42.2695 27.2461 44.0625C27.2461 45.8555 27.2812 46.2305 27.5156 47.0391C28.6523 50.9531 31.5469 53.8477 35.4609 54.9844C36.2695 55.2188 36.6445 55.2539 38.4375 55.2539C40.2305 55.2539 40.6055 55.2188 41.4141 54.9844C45.3281 53.8477 48.2227 50.9531 49.3594 47.0391C49.5938 46.2305 49.6289 45.8555 49.6289 44.0625C49.6289 42.2695 49.5938 41.8945 49.3594 41.0859C48.2344 37.1953 45.3398 34.2891 41.4727 33.1523C40.3359 32.8242 37.2656 32.7305 36.0938 32.9883ZM40.4297 34.9922C40.9453 35.0977 41.7891 35.4141 42.4805 35.7422C44.4961 36.7266 45.7734 38.0039 46.7578 40.0195C47.4492 41.4492 47.6953 42.5039 47.6953 44.0625C47.6953 45.5391 47.4609 46.6406 46.8516 47.9297C45.9141 49.9688 44.4961 51.3984 42.4805 52.3828C41.0742 53.0625 39.9258 53.332 38.4375 53.332C36.9492 53.332 35.8125 53.0625 34.3945 52.3828C32.3789 51.3984 31.1016 50.1211 30.1172 48.1055C29.4258 46.6758 29.1797 45.6211 29.1797 44.0625C29.1797 42.5039 29.4258 41.4492 30.1172 40.0195C31.1016 38.0039 32.3789 36.7266 34.3945 35.7422C36.4102 34.7578 38.1797 34.5469 40.4297 34.9922Z" fill="#FBFBFB"/>
<path d="M38.4375 37.5586V38.5547H38.9414C40.4414 38.5547 42.3633 39.8086 43.2656 41.3672C44.1914 42.961 44.168 45.2578 43.207 46.8985C43.043 47.1797 42.5859 47.7071 42.1875 48.0938L41.4727 48.7852L42.0117 49.5938C42.6445 50.543 42.6445 50.543 43.8281 49.3477C44.707 48.4571 45.4805 47.0743 45.7617 45.9258C45.9961 44.9297 45.9844 43.0547 45.75 42.1407C45.2461 40.1836 43.7812 38.3321 42.0117 37.418C40.9336 36.8672 39.8906 36.5625 39.0352 36.5625H38.4375V37.5586Z" fill="#FBFBFB"/>
<path d="M39 49.5352L38.4375 49.582V50.5781V51.5625H38.9648C39.2461 51.5625 39.75 51.5039 40.0781 51.4336C40.5586 51.3281 40.6758 51.2578 40.6289 51.1055C40.5938 51 40.4766 50.5898 40.3711 50.1797C40.1367 49.3711 40.2656 49.4414 39 49.5352Z" fill="#FBFBFB"/>
</g>
<defs>
<clipPath id="clip0_732_478">
<rect width="60" height="60" fill="white"/>
</clipPath>
</defs>
</svg>
