<svg width="60" height="60" viewBox="0 0 60 60" fill="none" xmlns="http://www.w3.org/2000/svg">
<path d="M7.45328 0.128906C5.32047 0.632812 3.42203 2.68359 3.04703 4.92188C2.95328 5.46094 2.92984 12.0234 2.95328 27.4805L2.98843 49.2773L3.24625 49.9453C4.00797 51.9375 5.51968 53.3438 7.44156 53.8477C7.98062 53.9766 8.81265 54.0234 11.0861 54.0234H14.0392L13.9806 54.9609C13.8283 57.1523 15.1408 59.0977 17.2502 59.7773C18.2697 60.0938 19.6291 60.0469 20.672 59.6484C21.4806 59.3438 22.3947 58.5 24.9611 55.7344L26.5431 54.0352L30.422 54.0234H34.2892L36.9845 56.7305C40.0197 59.7891 40.3127 60 41.6134 60C42.7033 60 43.3244 59.6602 44.6134 58.3242C45.3986 57.5039 45.715 57.0938 45.8556 56.6602C46.1017 55.9688 46.1017 55.1836 45.8791 54.5508C45.7853 54.293 45.7033 54.0703 45.7033 54.0469C45.7033 54.0352 47.0861 54.0234 48.7853 54.0234C51.1759 54.0234 52.0197 53.9883 52.5587 53.8477C54.4455 53.3555 56.0158 51.9141 56.7423 49.9805L57.0119 49.2773L57.047 27.4805C57.0705 12.0234 57.047 5.46094 56.9533 4.92188C56.5666 2.66016 54.6798 0.632812 52.5002 0.128906C51.8205 -0.0234375 8.12125 -0.0234375 7.45328 0.128906ZM52.6759 2.44922C53.4611 2.83594 54.2111 3.62109 54.5861 4.42969C54.8439 5.00391 54.9025 5.29688 54.9377 6.52734L54.9845 7.96875H30.0002H5.01578L5.06265 6.52734C5.09781 5.40234 5.16812 4.98047 5.35562 4.54688C5.70718 3.77344 6.16422 3.21094 6.76187 2.80078C7.80484 2.07422 6.1525 2.12109 30.1173 2.14453L52.09 2.16797L52.6759 2.44922ZM54.9377 29.4961L54.9025 48.9258L54.5744 49.5938C54.1525 50.4609 53.4494 51.1641 52.6408 51.5391L51.9728 51.8555L47.8595 51.8906L43.7462 51.9258L39.9494 48.1055C37.8634 46.0078 36.1173 44.2266 36.0705 44.1445C36.0236 44.0625 36.3986 43.5938 36.9962 42.9727C37.9572 41.9648 38.0041 41.9414 38.3439 42.0586C39.0705 42.3164 40.6173 42.4336 41.6837 42.3047C44.4025 42 46.7228 40.582 48.2697 38.2852C48.8205 37.4648 49.5002 35.9531 49.7345 35.0391C50.0041 33.9961 50.1095 32.0391 49.922 31.4766C49.4767 30.1289 47.9767 29.5547 46.6408 30.2461C46.4181 30.3633 45.4103 31.2773 44.4142 32.2734L42.5978 34.1016H41.4611C40.84 34.1016 40.2541 34.0664 40.1486 34.0312C39.9962 33.9727 39.9611 33.7383 39.9611 32.6602V31.3594L41.8361 29.4727C42.9611 28.3359 43.7697 27.4219 43.8869 27.1641C44.133 26.5547 44.1095 25.8281 43.8166 25.2305C43.3009 24.1523 42.3517 23.8125 40.4884 24.0234C36.3986 24.4688 33.1408 27.0586 31.9923 30.7617C31.6291 31.9453 31.5587 33.7617 31.8166 35.0625L32.0158 36.082L30.8205 37.2305C30.1525 37.8633 29.5314 38.4375 29.4142 38.5195C29.2502 38.6367 29.0509 38.4844 27.9611 37.3945L26.7072 36.1406L26.9416 35.6133C27.2111 35.0508 27.258 34.1719 27.0705 33.4922C27.0002 33.2578 26.6955 32.7773 26.3791 32.4375C25.6877 31.6641 25.547 31.418 25.6642 31.1016C25.7697 30.8438 27.2814 29.5195 28.758 28.418C29.7072 27.7031 29.883 27.4219 29.883 26.625C29.883 25.9336 29.5431 25.3594 29.0041 25.125C28.1252 24.7617 25.6408 25.0547 24.0236 25.7109C22.3009 26.4141 21.7736 26.8359 18.422 30.1641C16.6525 31.9102 15.1173 33.5273 15.0002 33.75C14.7072 34.3242 14.6134 35.0156 14.7541 35.625C14.8127 35.918 14.8361 36.1875 14.7775 36.2461C14.7306 36.293 14.4494 36.2461 14.1447 36.1406C13.7462 36.0117 13.4181 35.9766 13.0314 36.0352C12.5392 36.1055 12.3634 36.2344 11.3791 37.1836C10.7814 37.7812 10.2072 38.4258 10.1252 38.6367C9.91422 39.1289 9.91422 39.8906 10.1252 40.2891C10.2189 40.4648 11.4259 41.7188 12.797 43.0898C14.8595 45.1406 15.3752 45.5859 15.7619 45.6914C16.2306 45.8086 16.8517 45.7383 17.2853 45.4922C17.672 45.293 19.4416 43.418 19.5705 43.0781C19.7345 42.6328 19.7228 42.0703 19.5119 41.4961C19.4181 41.2383 19.383 41.0039 19.4298 41.0039C19.4767 40.9922 19.9572 40.9805 20.508 40.9688C21.2345 40.957 21.6095 40.8984 21.9025 40.7344L22.3009 40.5234L23.5197 41.7422L24.7267 42.9492L20.4259 47.0156C18.047 49.2539 15.9142 51.2695 15.6798 51.5039L15.2462 51.9258L11.5783 51.8906L7.91031 51.8555L7.28922 51.5273C6.49234 51.1055 5.83609 50.4258 5.42593 49.5938L5.09781 48.9258L5.06265 29.4961L5.03922 10.0781H30.0002H54.9611L54.9377 29.4961ZM41.8361 26.1328C41.9767 26.2148 41.6134 26.6367 40.0548 28.207C38.5314 29.7539 38.0744 30.2812 37.9689 30.6445C37.8869 30.9375 37.8517 31.7578 37.8752 32.8828C37.9103 34.5938 37.922 34.6641 38.2384 35.1445C38.4728 35.4844 38.7541 35.7305 39.1759 35.9297C39.7267 36.1758 39.9494 36.2109 41.3087 36.2109C42.1525 36.2109 43.0431 36.1523 43.3009 36.082C43.6759 35.9766 44.1564 35.5664 45.7033 34.0312C46.7697 32.9766 47.7072 32.1094 47.7892 32.1094C48.1291 32.1094 47.8712 34.125 47.3791 35.3906C45.8556 39.2461 42.1408 41.0859 38.3673 39.8438C37.7931 39.6445 37.5822 39.6211 37.3127 39.7266C37.1252 39.7969 36.3752 40.4883 35.6486 41.2617L34.3127 42.6562H33.7033H33.0822L31.9455 41.4375L30.8205 40.207L31.9572 39.1172C34.5002 36.6914 34.3712 36.8555 34.3009 36.3633C34.2775 36.1172 34.1252 35.4727 33.9845 34.9219C33.7619 34.1016 33.7267 33.75 33.7853 32.9297C33.9142 31.0898 34.5119 29.7891 35.8478 28.4648C37.172 27.1523 38.7189 26.3789 40.5119 26.1445C41.6134 26.0039 41.6369 26.0039 41.8361 26.1328ZM26.4728 27.457C26.3087 27.5977 25.6877 28.125 25.1134 28.6172C23.8361 29.6953 23.508 30.2578 23.508 31.3477C23.5197 32.1914 23.8009 32.8242 24.5627 33.6328C24.8673 33.9609 25.0783 34.3008 25.0783 34.4531C25.0783 34.6523 24.5158 35.2969 23.0627 36.7617C21.9494 37.8867 20.9181 38.8242 20.7775 38.8594C20.6134 38.9062 20.3908 38.8359 20.1681 38.6836C19.9689 38.5312 19.6408 38.4375 19.383 38.4375C18.9728 38.4375 18.8322 38.5312 18.0236 39.3398C16.9923 40.3711 16.9455 40.5117 17.3322 41.625L17.5548 42.2812L16.922 42.9023L16.2892 43.5352L14.2384 41.4844L12.1877 39.4336L12.8087 38.8125L13.4416 38.1797L14.2033 38.4141C14.6252 38.5547 15.0939 38.625 15.2462 38.5898C15.3986 38.5547 15.9142 38.1562 16.3712 37.6992C17.4142 36.6797 17.508 36.3633 17.0509 35.5781C16.8166 35.1797 16.7697 35.0039 16.8634 34.8398C16.922 34.7227 18.34 33.2812 20.0041 31.6289C22.4181 29.2266 23.1916 28.5352 23.8244 28.1836C24.6447 27.7383 26.1095 27.1992 26.5431 27.1992C26.7541 27.1992 26.7541 27.2227 26.4728 27.457ZM28.3595 40.8398L31.465 43.9453L30.7853 44.6133L30.1173 45.293L26.9884 42.1641L23.8478 39.0234L24.4923 38.3789C24.8439 38.0273 25.1603 37.7344 25.1955 37.7344C25.2306 37.7344 26.6486 39.1289 28.3595 40.8398ZM27.5627 45.7852C28.7931 47.0508 28.8048 47.0508 28.8634 47.7188L28.922 48.3867L26.6837 50.7656C19.8869 57.9844 20.0041 57.8789 18.7736 57.8906C17.6486 57.8906 16.8283 57.3633 16.3361 56.3086C15.9142 55.418 15.9962 54.457 16.547 53.7188C16.8166 53.3555 26.1447 44.5312 26.2502 44.5312C26.2853 44.5312 26.8712 45.0938 27.5627 45.7852ZM37.6525 48.832C43.6994 54.9727 43.9455 55.2422 43.9455 55.6172C43.9455 55.8633 43.7228 56.1562 42.9728 56.918C41.4494 58.4414 42.0939 58.8398 36.0705 52.6992L30.9728 47.5195L32.3322 46.207C33.0822 45.4805 33.7033 44.8945 33.715 44.8828C33.7384 44.8828 35.508 46.6641 37.6525 48.832ZM31.3478 50.9766L32.2853 51.9141H30.422H28.5705L29.4377 50.9883C29.9064 50.4727 30.3166 50.0508 30.3517 50.0508C30.3869 50.0391 30.8322 50.4609 31.3478 50.9766Z" fill="#FBFBFB"/>
<path d="M8.26174 4.27734C7.87502 4.65234 7.87502 5.26172 8.25002 5.70703C8.51955 6.01172 8.58986 6.03516 9.46877 6.03516C10.3008 6.03516 10.4414 6 10.711 5.75391C11.1211 5.36719 11.1328 4.67578 10.7227 4.27734C10.4649 4.01953 10.3477 3.98438 9.4922 3.98438C8.63674 3.98438 8.51955 4.01953 8.26174 4.27734Z" fill="#FBFBFB"/>
<path d="M13.2777 4.24212C12.9496 4.61712 12.8793 5.01556 13.0551 5.44915C13.266 5.95306 13.7465 6.12884 14.7191 6.07024C15.3988 6.02337 15.5394 5.97649 15.7738 5.69524C16.1488 5.26165 16.1488 4.65228 15.7621 4.27728C15.5043 4.00774 15.3871 3.98431 14.4965 3.98431C13.6293 3.98431 13.4887 4.01946 13.2777 4.24212Z" fill="#FBFBFB"/>
<path d="M18.4218 4.0665C18.1523 4.17196 17.9062 4.8165 17.9765 5.21493C18.0937 5.80087 18.4218 6.02353 19.289 6.0704C20.1914 6.129 20.6835 5.95321 20.9179 5.49618C21.164 5.02743 21.1406 4.7579 20.789 4.34775C20.496 3.99618 20.4609 3.98446 19.5351 3.99618C19.0078 3.99618 18.5039 4.03134 18.4218 4.0665Z" fill="#FBFBFB"/>
<path d="M29.2383 4.27724C28.8516 4.65224 28.8516 5.26161 29.2266 5.70693L29.5078 6.03505L37.8164 6.07021C44.0274 6.09365 46.1953 6.05849 46.4531 5.95302C46.8399 5.80068 47.1328 5.21474 47.0274 4.79286C46.9922 4.64052 46.8516 4.39443 46.7227 4.24208L46.4883 3.98427H38.0039H29.5195L29.2383 4.27724Z" fill="#FBFBFB"/>
<path d="M30.7504 12.9727C30.1644 13.0781 30.0472 13.4063 28.9574 17.7891C27.9613 21.7735 27.9027 22.0664 28.0551 22.4297C28.3363 23.0977 29.2269 23.2735 29.7543 22.7461C29.9887 22.5117 32.0394 14.5313 32.016 13.9102C32.0043 13.3242 31.3715 12.8555 30.7504 12.9727Z" fill="#FBFBFB"/>
<path d="M23.332 14.1914C22.875 14.4727 20.3438 16.3594 19.5469 17.0273C19.043 17.4375 18.9844 17.5313 18.9844 17.9766C18.9844 18.5859 18.9961 18.5977 21.6094 20.5547C23.3203 21.832 23.6484 22.0312 24.0352 22.0312C24.375 22.0312 24.5391 21.9609 24.7734 21.668C25.3945 20.9297 25.1719 20.5195 23.4023 19.1953C22.6055 18.5977 21.9609 18.0469 21.9609 17.9883C21.9609 17.918 22.6055 17.3789 23.3906 16.793C24.1875 16.1953 24.8906 15.5977 24.9609 15.4805C25.1719 15.0703 25.0898 14.6484 24.7383 14.2852C24.3281 13.875 23.8945 13.8516 23.332 14.1914Z" fill="#FBFBFB"/>
<path d="M35.2619 14.2852C34.9104 14.6484 34.8283 15.0703 35.0393 15.4805C35.1096 15.5977 35.8127 16.1836 36.5979 16.7695C37.383 17.3672 38.0627 17.8828 38.1213 17.9297C38.1682 17.9648 37.5119 18.5273 36.6682 19.1602C34.8166 20.5547 34.6057 20.9297 35.2268 21.668C35.4611 21.9609 35.6252 22.0312 35.9651 22.0312C36.3518 22.0312 36.6799 21.832 38.3908 20.5547C41.0041 18.5977 41.0158 18.5859 41.0158 17.9883C41.0158 17.6133 40.9455 17.4375 40.6994 17.2031C40.2893 16.8281 37.1721 14.4961 36.6565 14.1797C36.1057 13.8516 35.6721 13.875 35.2619 14.2852Z" fill="#FBFBFB"/>
</svg>
