<svg width="48" height="48" viewBox="0 0 48 48" fill="none" xmlns="http://www.w3.org/2000/svg">
<path d="M22.8094 0.196857C22.2188 0.421856 21.5719 1.04061 21.2625 1.65936C21.0844 2.03436 21.0469 2.24998 21.0469 2.99998C21.0469 3.77811 21.0844 3.94686 21.3 4.35936C21.6094 4.95936 22.2281 5.53123 22.8094 5.77498L23.25 5.95311V7.83748V9.72186L22.4625 9.78748C19.9781 9.99373 17.0344 11.2125 14.9625 12.8906L14.4656 13.3031L13.4531 12.2812L12.45 11.2687L12.7406 10.6687C13.1344 9.82498 13.2469 9.21561 13.2 8.16561C13.1438 7.10623 12.9375 6.51561 12.3188 5.66248C11.4563 4.44373 10.0688 3.74998 8.475 3.74998C6.32813 3.74998 4.50938 5.12811 3.9 7.20936C3.72188 7.82811 3.70313 9.06561 3.88125 9.70311C4.1625 10.7531 4.81875 11.7281 5.68125 12.3375C6.4875 12.9187 7.17188 13.1437 8.2125 13.2C9.225 13.2469 9.84375 13.1344 10.6688 12.7406L11.2688 12.45L12.2813 13.4531L13.3031 14.4656L12.8906 14.9625C11.8313 16.2656 10.9781 17.85 10.4062 19.5844C10.0406 20.7 9.75 22.125 9.75 22.8469V23.25H7.85625H5.95312L5.775 22.8094C5.53125 22.2281 4.95938 21.6094 4.35938 21.3C3.94688 21.0844 3.77813 21.0469 3 21.0469C1.95 21.0469 1.47188 21.2344 0.796875 21.9C-0.28125 22.9875 -0.28125 25.0125 0.796875 26.1C1.47188 26.7656 1.95 26.9531 3 26.9531C3.77813 26.9531 3.94688 26.9156 4.35938 26.7C4.95938 26.3906 5.53125 25.7719 5.775 25.1906L5.95312 24.75H7.8375H9.72188L9.77813 25.4812C9.975 27.9937 11.2406 31.05 12.9469 33.1031L13.3031 33.525L12.2906 34.5375L11.2688 35.55L10.6688 35.2687C10.3406 35.1094 9.88125 34.9312 9.65625 34.8844C9.1125 34.7625 7.85625 34.7625 7.3125 34.8844C6.5625 35.0531 5.71875 35.5406 5.11875 36.1406C4.19063 37.0781 3.75 38.1469 3.75 39.5156C3.75 40.6594 4.02188 41.5031 4.67813 42.375C5.59688 43.5937 6.91875 44.25 8.48438 44.25C10.6031 44.25 12.2906 43.0594 13.0031 41.0625C13.4156 39.8812 13.2656 38.2312 12.6281 37.0969L12.4313 36.7406L13.4531 35.7187L14.475 34.6969L14.8969 35.0531C16.9594 36.7687 19.9406 37.9969 22.5469 38.2219L23.25 38.2781V40.1625V42.0469L22.8094 42.225C22.2281 42.4687 21.6094 43.0406 21.3 43.6406C21.0844 44.0531 21.0469 44.2219 21.0469 45C21.0469 46.05 21.2344 46.5281 21.9 47.2031C22.4906 47.7844 23.1656 48.0281 24.1406 47.9812C25.0219 47.9437 25.6219 47.7 26.1656 47.1375C26.775 46.5094 26.9531 46.0219 26.9531 45C26.9531 44.2219 26.9156 44.0531 26.7 43.6406C26.3906 43.0406 25.7719 42.4687 25.1906 42.225L24.75 42.0469V40.1625V38.2781L25.4531 38.2219C28.0594 37.9969 31.0406 36.7687 33.1031 35.0531L33.525 34.6969L34.5469 35.7187L35.5688 36.7406L35.3719 37.0969C34.7906 38.1375 34.6031 39.75 34.9313 40.8844C35.3906 42.45 36.7969 43.7906 38.3438 44.1469C38.8875 44.2687 40.1438 44.2687 40.6875 44.1469C42.3 43.7812 43.7812 42.3 44.1469 40.6875C44.2688 40.1437 44.2688 38.8875 44.1469 38.3437C43.7812 36.7406 42.2906 35.25 40.6875 34.8844C40.1438 34.7625 38.8875 34.7625 38.3438 34.8844C38.1188 34.9312 37.6594 35.1094 37.3313 35.2687L36.7313 35.55L35.7094 34.5375L34.6969 33.525L35.0531 33.1031C36.7406 31.0687 38.025 27.9937 38.2219 25.5187L38.2781 24.75H40.1625H42.0469L42.225 25.1906C42.4688 25.7719 43.0406 26.3906 43.6406 26.7C44.0531 26.9156 44.2219 26.9531 45 26.9531C46.05 26.9531 46.5281 26.7656 47.2031 26.1C48.2813 25.0125 48.2813 22.9875 47.2031 21.9C46.5281 21.2344 46.05 21.0469 45 21.0469C44.2219 21.0469 44.0531 21.0844 43.6406 21.3C43.0406 21.6094 42.4688 22.2281 42.225 22.8094L42.0469 23.25H40.1625H38.2781L38.2219 22.4719C38.025 20.0156 36.7875 17.0344 35.1094 14.9625L34.6969 14.4656L35.7188 13.4531L36.7313 12.45L37.3313 12.7312C37.6594 12.8906 38.1188 13.0687 38.3438 13.1156C38.8875 13.2375 40.1438 13.2375 40.6875 13.1156C42.2906 12.75 43.7812 11.2594 44.1469 9.65623C44.2688 9.11248 44.2688 7.85623 44.1469 7.31248C43.7812 5.71873 42.2812 4.21873 40.6875 3.85311C40.1438 3.73123 38.8875 3.73123 38.3438 3.85311C36.7969 4.20936 35.3906 5.54998 34.9313 7.11561C34.6031 8.24998 34.7906 9.86248 35.3719 10.9031L35.5688 11.2594L34.5469 12.2812L33.5344 13.3031L33.0375 12.8906C30.9656 11.2125 27.9844 9.97498 25.5281 9.7781L24.75 9.72186V7.83748V5.95311L25.1906 5.77498C25.7719 5.53123 26.3906 4.95936 26.7 4.35936C26.9156 3.94686 26.9531 3.77811 26.9531 2.99998C26.9531 1.94998 26.7656 1.47186 26.1 0.796856C25.3219 0.0281067 23.925 -0.234394 22.8094 0.196857ZM24.7313 1.78123C25.875 2.48436 25.4813 4.22811 24.15 4.37811C23.3156 4.47186 22.5938 3.82498 22.5938 2.99998C22.5938 2.20311 23.2031 1.59373 24 1.59373C24.2531 1.59373 24.5438 1.66873 24.7313 1.78123ZM9.91875 5.67186C10.4906 5.98123 11.0438 6.55311 11.3625 7.14373C11.55 7.49061 11.5781 7.68748 11.5781 8.48436C11.5781 9.34686 11.5594 9.45935 11.3063 9.91873C10.9875 10.4906 10.4062 11.0531 9.825 11.3531C9.21563 11.6719 8.09063 11.7094 7.3875 11.4375C6.72188 11.1937 6.02813 10.575 5.67188 9.9281C5.2875 9.2156 5.23125 8.16561 5.54063 7.35936C5.8125 6.61873 6.59063 5.83123 7.3125 5.54998C8.08125 5.24061 9.23438 5.29686 9.91875 5.67186ZM40.6594 5.54998C41.4 5.82186 42.1781 6.59998 42.45 7.34061C43.0125 8.84998 42.3844 10.5094 40.95 11.2969C40.4906 11.5594 40.3781 11.5781 39.5156 11.5781C38.4469 11.5781 38.0906 11.4469 37.3406 10.7531C35.6156 9.16873 36.2625 6.28123 38.5219 5.47498C39.0563 5.27811 40.0406 5.31561 40.6594 5.54998ZM26.2219 11.4937C30.7688 12.2812 34.7156 15.75 36.1219 20.2219C36.8719 22.5937 36.8719 25.4062 36.1219 27.7781C34.6969 32.2875 30.8063 35.7 26.1188 36.5344C25.0875 36.7125 23.1188 36.7312 22.0781 36.5719C16.7156 35.7094 12.4406 31.5 11.475 26.1469C11.2688 25.0031 11.2688 23.0062 11.4656 21.8812C12.5813 15.6094 18.2344 11.0156 24.4688 11.3062C25.0125 11.3344 25.8 11.4187 26.2219 11.4937ZM3.61875 22.7437C4.28438 23.0625 4.58438 23.925 4.26562 24.6C3.61875 25.95 1.59375 25.4906 1.59375 24C1.59375 22.9406 2.65313 22.2844 3.61875 22.7437ZM45.7313 22.7812C46.95 23.5219 46.425 25.4062 45 25.4062C43.8844 25.4062 43.2094 24.0937 43.8563 23.175C44.2594 22.6125 45.1406 22.425 45.7313 22.7812ZM9.91875 36.7031C10.4906 37.0125 11.0438 37.5844 11.3625 38.175C11.55 38.5219 11.5781 38.7187 11.5781 39.5156C11.5781 40.3781 11.5594 40.4906 11.2969 40.95C10.05 43.2187 6.90938 43.2187 5.67188 40.9594C5.45625 40.5562 5.39062 40.3125 5.3625 39.7031C5.31563 38.7844 5.54063 38.1094 6.10313 37.4719C6.825 36.6469 7.5 36.3562 8.625 36.4031C9.29063 36.4219 9.50625 36.4781 9.91875 36.7031ZM40.95 36.7031C42.8625 37.7437 43.2469 40.2094 41.7281 41.7281C41.0063 42.4406 40.3594 42.6844 39.3281 42.6375C38.4094 42.5906 37.7906 42.2906 37.1719 41.5969C36.5719 40.9406 36.3469 40.2656 36.3938 39.3281C36.4406 38.4844 36.6375 38.0156 37.1813 37.4062C37.875 36.6375 38.5594 36.3656 39.6562 36.4031C40.3219 36.4219 40.5375 36.4781 40.95 36.7031ZM24.8156 43.8562C25.3875 44.2594 25.575 45.1406 25.2188 45.7312C24.6656 46.6312 23.3438 46.6312 22.7719 45.7312C22.3781 45.0937 22.6781 44.0906 23.3625 43.7437C23.7656 43.5375 24.45 43.5937 24.8156 43.8562Z" fill="#FBFBFB"/>
</svg>
