<svg width="48" height="42" viewBox="0 0 48 42" fill="none" xmlns="http://www.w3.org/2000/svg">
<path d="M11.7188 0.168747C11.5594 0.1875 9.74063 1.94062 5.74688 5.93437L0 11.6719V12.0844C0 12.4875 0.0375 12.5344 1.05 13.5656L2.1 14.625H1.275C0.534375 14.625 0.440625 14.6437 0.234375 14.8594C0.046875 15.0375 0 15.1781 0 15.5344C0 15.975 2.55938 39.2625 2.68125 39.9375C2.8125 40.6406 3.19688 41.1469 3.99375 41.6625L4.36875 41.9062L24.0094 41.8875L43.6406 41.8594L44.1469 41.5781C44.7188 41.2594 45.0375 40.8937 45.2344 40.3031C45.375 39.8719 48 19.4531 48 18.7594C48 18.5437 47.9531 18.2812 47.9062 18.1781C47.85 18.075 46.9594 17.5687 45.8531 17.0156C44.3063 16.2469 43.8844 15.9937 43.8469 15.825C43.8188 15.7031 43.2563 13.2281 42.6094 10.3125C41.9625 7.39687 41.3813 4.89375 41.325 4.75312C41.2031 4.43437 40.9125 4.21875 40.6125 4.21875C40.5 4.21875 35.9813 5.2125 30.5813 6.42188L20.7656 8.625L16.5469 4.41562C14.2313 2.1 12.2438 0.196873 12.1406 0.168747C12.0375 0.149998 11.85 0.149998 11.7188 0.168747ZM15.3656 5.6625L18.7781 9.075L18.0844 9.225C15.375 9.83437 15.2813 9.88125 15.2813 10.5375C15.2813 10.8656 15.8719 13.7344 16.0875 14.4562C16.1344 14.6156 15.8156 14.625 10.3406 14.625H4.54688L3.28125 13.3594L2.01562 12.0937L6.9375 7.17188C9.64688 4.4625 11.8781 2.25 11.9062 2.25C11.9344 2.25 13.4906 3.7875 15.3656 5.6625ZM39.9844 6.39375C40.0219 6.5625 40.4719 8.55937 40.9781 10.8281C41.4844 13.0875 41.8875 14.9625 41.8688 14.9812C41.85 15 41.6625 14.925 41.4469 14.8219C41.1 14.6344 40.9125 14.625 38.6906 14.625H36.3188L33.5625 12.6562C32.0531 11.5687 30.7125 10.6594 30.5906 10.6312C30.2438 10.5375 29.8219 10.7719 29.6344 11.1469C29.5406 11.3344 29.2219 12.1031 28.9219 12.8531L28.3875 14.2219L25.9406 12.8344C23.2969 11.3156 23.1 11.25 22.6219 11.6625C22.3594 11.8875 22.3594 11.8875 22.3313 13.2562L22.2938 14.625H20.0813H17.8594L17.475 12.9094C17.175 11.5781 17.1188 11.1937 17.2219 11.175C17.9156 11.0062 39.7313 6.10312 39.8156 6.10312C39.8719 6.09375 39.9563 6.23438 39.9844 6.39375ZM31.7344 14.6062C30.8719 14.6156 30.1406 14.6156 30.1219 14.5969C30.1031 14.5687 30.2438 14.1562 30.4406 13.6687L30.7875 12.7781L32.0438 13.6781L33.3 14.5781L31.7344 14.6062ZM25.4531 14.5406C25.5 14.5875 25.2281 14.625 24.8156 14.625H24.0938V14.1937V13.7625L24.7313 14.1094C25.0781 14.3062 25.3969 14.5031 25.4531 14.5406ZM39.8438 16.425C39.8438 16.65 40.9125 26.3625 41.0156 27.0187L41.0625 27.3656L34.3688 27.3937L27.675 27.4219L27.4313 27.6469C27.1031 27.9562 27.0938 28.5094 27.4219 28.8281L27.6469 29.0625H34.4344H41.2219L41.2781 29.4562C41.3063 29.6812 41.5688 32.0437 41.8688 34.7156C42.4406 39.9562 42.4406 39.8812 41.9344 40.1156C41.775 40.1906 36.5906 40.2187 23.2875 40.2187H4.85625L4.58438 39.9469C4.43438 39.7969 4.3125 39.6094 4.3125 39.5344C4.3125 39.4688 4.05938 37.1344 3.75 34.3594C3.44063 31.5844 3.1875 29.2594 3.1875 29.1844C3.1875 29.0812 4.275 29.0625 9.375 29.0625H15.5719L15.7969 28.8281C16.1063 28.5281 16.1063 28.0406 15.8063 27.6844L15.5813 27.4219L9.29063 27.3937L3 27.3656L2.95312 27.1594C2.90625 26.9062 1.78125 16.7062 1.78125 16.4719C1.78125 16.3219 2.74688 16.3125 20.8125 16.3125C35.9719 16.3125 39.8438 16.3406 39.8438 16.425ZM44.0063 18.0187C46.1906 19.1062 46.2938 19.1719 46.2563 19.4062C46.2375 19.5375 45.7125 23.6437 45.0938 28.5469C44.475 33.4406 43.9594 37.5375 43.95 37.6406C43.9219 37.8094 41.6156 17.2875 41.625 16.9875C41.625 16.9312 41.6438 16.875 41.6719 16.875C41.7 16.875 42.75 17.3906 44.0063 18.0187Z" fill="#FBFBFB"/>
</svg>
