<svg width="48" height="48" viewBox="0 0 48 48" fill="none" xmlns="http://www.w3.org/2000/svg">
<g clip-path="url(#clip0_364_677)">
<path d="M11.4845 0.515625C10.2376 1.36875 8.89699 1.79062 6.87199 1.96875C5.67199 2.07187 5.25011 2.2875 4.91261 2.925C4.72511 3.29062 4.72511 9.1875 4.92199 10.6031C5.50324 14.9719 7.46261 18.1781 10.7064 20.0719C11.0626 20.2781 11.5407 20.5219 11.7657 20.6062C12.2345 20.775 12.2345 20.8031 12.0939 21.5719C11.9532 22.3125 11.972 24.3094 12.1314 25.1344C12.3095 26.0531 12.6751 27.1406 13.0595 27.8719C13.2189 28.1906 13.3689 28.4812 13.3876 28.5187C13.4064 28.5469 13.1064 28.4812 12.7314 28.3594C11.8407 28.0781 10.8189 27.9375 9.60949 27.9375C8.69074 27.9375 8.64386 27.9281 8.58761 27.7219C8.52199 27.4406 7.92199 26.8406 7.46261 26.5969C7.09699 26.4 6.93761 26.3906 4.61261 26.3625C1.86574 26.325 1.45324 26.3906 0.825111 26.9062C0.637611 27.0562 0.375111 27.4031 0.243861 27.675L0.000110977 28.1625V37.2094C0.000110977 47.4281 -0.056139 46.6594 0.750111 47.3719C1.42511 47.9906 1.48136 48 4.37824 48C6.79699 48 7.01261 47.9812 7.40636 47.8031C7.64074 47.7 7.91261 47.5312 8.01574 47.4375C8.20324 47.2594 8.53136 47.25 18.8439 47.2312L29.4845 47.2031L30.2345 46.9406C31.1157 46.6312 30.6564 46.8937 39.6095 41.4469C47.3064 36.7687 47.522 36.6187 47.8501 35.6625C48.2157 34.5844 47.9439 33.2531 47.2126 32.4937C46.4907 31.7625 45.5345 31.4437 44.5126 31.6031C44.2407 31.65 40.6032 32.8219 36.422 34.2187C30.7407 36.1125 28.7157 36.75 28.3876 36.75C28.1345 36.75 27.9376 36.7406 27.9376 36.7219C27.9376 36.7125 27.9845 36.5531 28.0314 36.375C28.172 35.8781 28.1532 34.6969 27.9845 34.1531C27.9095 33.8906 27.6564 33.4312 27.4407 33.1219L27.0376 32.5781L27.7501 32.175C29.747 31.0594 31.5376 28.8562 32.2876 26.5969C32.7189 25.2844 32.8407 24.3844 32.7845 22.8281C32.7564 22.05 32.6907 21.2812 32.6439 21.1125L32.5407 20.8125H39.0001C45.3939 20.8125 45.4689 20.8125 46.0032 20.6062C46.7439 20.3344 47.522 19.5562 47.8032 18.8062C48.0001 18.2625 48.0095 18.2437 47.9814 11.8219L47.9532 5.39062L47.672 4.89375C47.3157 4.2375 46.622 3.61875 45.9751 3.38437C45.5345 3.21562 45.2439 3.1875 43.9782 3.1875H42.497L42.4407 2.44687C42.3657 1.275 41.8782 0.534374 40.9407 0.140625C40.6595 0.0281219 40.0782 0 37.5751 0C34.847 0 34.5095 0.0187492 34.172 0.178123C33.3189 0.5625 32.8314 1.35 32.747 2.49375L32.6907 3.1875H31.2095C29.9157 3.1875 29.6532 3.21562 29.1845 3.39375C28.4439 3.66562 27.6657 4.44375 27.3939 5.18437C27.197 5.70937 27.1876 5.85 27.1876 9.79688C27.1876 12.0375 27.1689 13.875 27.1501 13.875C27.1314 13.875 26.8407 13.7531 26.5032 13.5938C24.947 12.8906 22.8282 12.6 21.047 12.8531C20.6532 12.9094 20.3064 12.9375 20.2876 12.9187C20.2782 12.9 20.372 12.375 20.5032 11.7656C20.7376 10.6875 20.747 10.4812 20.7845 7.00312C20.8126 4.99687 20.8032 3.2625 20.7751 3.14062C20.7001 2.84062 20.2876 2.37187 19.9595 2.19375C19.8001 2.11875 19.247 2.01562 18.722 1.96875C16.697 1.79062 15.4126 1.3875 14.1282 0.524998C13.397 0.0374985 13.3126 0 12.7876 0C12.272 0 12.1876 0.0374985 11.4845 0.515625ZM14.597 2.75625C15.7689 3.24375 17.2595 3.58125 18.7501 3.68437L19.0782 3.70312V6.98438C19.0689 10.5469 19.0126 11.0437 18.422 12.9187L18.197 13.65L17.6532 13.9125C15.7782 14.8312 14.0532 16.5469 13.0689 18.4969C12.6939 19.2187 12.7126 19.2187 11.8126 18.7312C9.90949 17.6812 8.40011 15.9937 7.53761 13.95C6.69386 11.9625 6.46886 10.4062 6.46886 6.525V3.68437L7.29386 3.62812C9.20636 3.4875 11.2314 2.83125 12.4032 1.96875L12.7689 1.70625L13.3876 2.10938C13.7345 2.325 14.2782 2.61562 14.597 2.75625ZM40.3595 1.74375C40.5939 1.8375 40.7814 2.2875 40.7814 2.76562V3.1875H37.5845H34.3876L34.4251 2.67188C34.4532 2.29688 34.5282 2.09062 34.6876 1.92188L34.9032 1.6875H37.5564C39.0095 1.6875 40.2751 1.71562 40.3595 1.74375ZM45.572 5.09062C45.7407 5.20312 45.9845 5.44687 46.097 5.61562L46.3126 5.93437V12V18.0656L46.097 18.3844C45.9845 18.5531 45.7407 18.7969 45.572 18.9094L45.2532 19.125H38.6345L32.0157 19.1156L31.6876 18.45C31.2657 17.5594 30.4314 16.4531 29.5782 15.6281L28.8751 14.9531V10.4437V5.93437L29.0907 5.61562C29.2032 5.44687 29.447 5.20312 29.6157 5.09062L29.9345 4.875H37.5939H45.2532L45.572 5.09062ZM24.3657 14.6719C27.4876 15.4312 30.0095 17.8781 30.8626 20.9625C31.1439 21.9844 31.1626 24.2906 30.9001 25.2656C30.1782 27.9375 28.4907 29.9719 26.0439 31.125L25.2939 31.4719L24.8532 31.3312C24.5157 31.2188 23.8126 31.1812 21.5626 31.1437L18.7032 31.1062L18.1876 30.8344C15.9751 29.6531 14.3439 27.4219 13.8282 24.8531C13.5939 23.7 13.6689 21.9 14.0064 20.7844C14.972 17.55 17.5689 15.2062 20.8876 14.5781C21.7689 14.4094 23.4939 14.4562 24.3657 14.6719ZM6.74074 28.1719C6.89074 28.2469 7.03136 28.3781 7.06886 28.4531C7.09699 28.5375 7.12511 32.4937 7.12511 37.2469V45.8812L6.91886 46.0969C6.72199 46.3125 6.70324 46.3125 4.41574 46.3125C2.19386 46.3125 2.11886 46.3031 1.90324 46.1062L1.68761 45.9094V37.2469C1.68761 31.2937 1.71574 28.5187 1.79074 28.3969C1.84699 28.2937 1.97824 28.1719 2.09074 28.125C2.20324 28.0781 3.23449 28.0406 4.38761 28.0406C6.04699 28.0312 6.53449 28.0594 6.74074 28.1719ZM11.8595 29.8594C12.6657 30.0844 13.4345 30.4688 14.3439 31.1344C15.4782 31.95 16.0314 32.2125 17.6251 32.6719C17.7564 32.7187 19.2939 32.775 21.047 32.8031C24.2157 32.8687 24.2345 32.8687 24.7595 33.1125C25.4251 33.4219 25.997 33.9281 26.2407 34.4437C26.5032 34.9781 26.5032 35.8031 26.2407 36.3469L26.0439 36.75H23.4095C20.6532 36.75 19.9501 36.8156 18.9376 37.1437C17.8314 37.5 16.247 38.4094 16.0314 38.8125C15.872 39.1125 15.9282 39.4406 16.1814 39.7406C16.5095 40.1344 16.9595 40.1344 17.5314 39.7406C18.1689 39.3094 19.1251 38.85 19.7439 38.6625C20.222 38.5219 20.9157 38.4937 24.8907 38.4375L29.4845 38.3812L37.0782 35.8312C42.0189 34.1719 44.8032 33.2812 45.047 33.2812C45.7689 33.2812 46.3126 33.8625 46.3126 34.6219C46.3126 35.0156 46.2657 35.1187 45.9657 35.4281C45.5251 35.8781 30.5439 45.0094 29.747 45.3094L29.2032 45.5156L19.0126 45.5437L8.81261 45.5719V37.5844V29.5969L10.0595 29.6531C10.7345 29.6812 11.5501 29.775 11.8595 29.8594Z" fill="#FBFBFB"/>
<path d="M15.6096 5.63437C15.5064 5.69062 14.4564 7.03125 13.2658 8.625L11.1096 11.5125L10.5471 10.9594C10.0408 10.4719 9.9377 10.4062 9.6002 10.4062C9.1127 10.4062 8.79395 10.7156 8.79395 11.1937C8.79395 11.6062 8.98145 11.8687 9.95645 12.8062C10.7908 13.6031 11.1096 13.7625 11.5314 13.5656C11.8033 13.4344 16.7439 6.91875 16.8283 6.57187C16.9971 5.925 16.2189 5.33437 15.6096 5.63437Z" fill="#FBFBFB"/>
<path d="M35.9813 6.6C34.2282 7.11562 32.7657 8.54062 32.2313 10.2469C31.9313 11.2031 31.9313 12.7969 32.2313 13.7531C32.9438 16.0312 35.147 17.625 37.6032 17.625C40.1907 17.625 42.4407 15.8812 43.0782 13.3594C43.2563 12.6469 43.2563 11.3531 43.0782 10.6406C42.5813 8.67188 41.0532 7.10625 39.0938 6.57187C38.1282 6.3 36.947 6.30937 35.9813 6.6ZM38.7282 8.25C41.7845 9.19687 42.5157 13.1906 39.9845 15.1125C39.2251 15.6937 38.6251 15.8812 37.5938 15.8812C36.8907 15.8812 36.5907 15.8344 36.1876 15.675C34.172 14.8687 33.1595 12.5906 33.9282 10.5937C34.6595 8.68125 36.7876 7.64062 38.7282 8.25Z" fill="#FBFBFB"/>
<path d="M37.1625 9.675C36.8813 9.80625 36.75 10.1437 36.75 10.6875V11.1562H36.2812C35.5406 11.1562 35.1562 11.4469 35.1562 12C35.1562 12.5531 35.5406 12.8437 36.2812 12.8437H36.75V13.3125C36.75 14.0531 37.0406 14.4375 37.5938 14.4375C38.1469 14.4375 38.4375 14.0531 38.4375 13.3125V12.8437H38.9156C39.6656 12.8437 40.0219 12.5719 40.0219 12C40.0219 11.4281 39.6656 11.1562 38.9156 11.1562H38.4375V10.6875C38.4375 10.4344 38.3906 10.125 38.3344 10.0031C38.1562 9.60938 37.6031 9.45937 37.1625 9.675Z" fill="#FBFBFB"/>
<path d="M21.7969 17.0156C21.6656 17.1375 21.5625 17.3438 21.5625 17.4656C21.5625 17.6438 21.4969 17.7094 21.3094 17.7563C21.1594 17.7938 20.8219 17.9719 20.5594 18.15C19.5844 18.7875 19.0125 20.1 19.2 21.2625C19.4625 22.8094 20.475 23.7844 22.0875 24.0094C22.9781 24.1313 23.1375 24.1875 23.475 24.525C23.8031 24.8625 23.9063 25.1156 23.9063 25.6125C23.9063 26.4563 23.25 27.1313 22.4156 27.1313C21.6 27.1313 20.9719 26.5313 20.85 25.65C20.7656 25.0688 20.5688 24.8438 20.1094 24.7781C19.6406 24.7219 19.2563 24.9938 19.1625 25.4438C19.0781 25.9031 19.3594 26.8688 19.7344 27.4406C20.0719 27.9469 20.8313 28.5281 21.3094 28.65C21.4969 28.6969 21.5625 28.7625 21.5625 28.9406C21.5625 29.0625 21.6656 29.2688 21.7969 29.3906C22.2469 29.85 23.0906 29.6063 23.2125 28.9875C23.25 28.7906 23.3813 28.6875 23.7656 28.5188C24.4125 28.2281 24.9938 27.6469 25.3313 26.9344C25.5563 26.4563 25.6031 26.2406 25.6125 25.6031C25.6125 24.9563 25.575 24.7594 25.3313 24.2531C24.8156 23.1375 24 22.575 22.6031 22.3688C21.7031 22.2281 21.375 22.0688 21.1031 21.6188C20.7094 20.9625 20.7938 20.25 21.3188 19.725C22.2188 18.825 23.6438 19.3031 23.9063 20.5969C24.0469 21.3 24.2063 21.5438 24.5906 21.6094C25.5281 21.7875 25.9125 20.85 25.4156 19.5563C25.1344 18.8344 24.1594 17.9156 23.5219 17.7656C23.3438 17.7188 23.2594 17.625 23.2125 17.4375C23.0906 16.7813 22.2656 16.5375 21.7969 17.0156Z" fill="#FBFBFB"/>
</g>
<defs>
<clipPath id="clip0_364_677">
<rect width="48" height="48" fill="white"/>
</clipPath>
</defs>
</svg>
