<svg xmlns="http://www.w3.org/2000/svg" version="1.1" xmlns:xlink="http://www.w3.org/1999/xlink" xmlns:svgjs="http://svgjs.dev/svgjs" width="1440" height="560" preserveAspectRatio="none" viewBox="0 0 1440 560"><g mask="url(&quot;#SvgjsMask1004&quot;)" fill="none"><path d="M22.73 132a42.84 42.84 0 1 0-25.45 81.82z" stroke="rgba(33, 50, 104, 0.3215686274509804)"></path><path d="M15.16 352.3a46.98 46.98 0 1 0 71.54 60.91z" stroke="rgba(33, 50, 104, 0.3215686274509804)"></path><path d="M551.38 461.79L571.19 461.79L571.19 481.6L551.38 481.6z" stroke="rgba(33, 50, 104, 0.3215686274509804)"></path><path d="M834.95 246.48 a49.01 49.01 0 1 0 98.02 0 a49.01 49.01 0 1 0 -98.02 0z" stroke="rgba(33, 50, 104, 0.3215686274509804)"></path><path d="M1115.32 279L1126.53 279L1126.53 315.37L1115.32 315.37z" fill="rgba(33, 50, 104, 0.3215686274509804)"></path><path d="M552.93 524.36L602.37 524.36L602.37 539.91L552.93 539.91z" stroke="rgba(33, 50, 104, 0.3215686274509804)"></path><path d="M193.09 143.17L195.37 143.17L195.37 145.45L193.09 145.45z" stroke="rgba(33, 50, 104, 0.3215686274509804)"></path><path d="M755.2 93.69a50.12 50.12 0 1 0-14.56-99.18z" fill="rgba(33, 50, 104, 0.3215686274509804)"></path><path d="M1298.21 50.79 a4.71 4.71 0 1 0 9.42 0 a4.71 4.71 0 1 0 -9.42 0z" fill="rgba(33, 50, 104, 0.3215686274509804)"></path><path d="M18.03 299.32L29.4 299.32L29.4 310.69L18.03 310.69z" fill="rgba(33, 50, 104, 0.3215686274509804)"></path><path d="M216.38 500.92a26.55 26.55 0 1 0-52.94 4.2z" stroke="rgba(33, 50, 104, 0.3215686274509804)"></path><path d="M220.32 338.04a51.07 51.07 0 1 0-100.59-17.74z" fill="rgba(33, 50, 104, 0.3215686274509804)"></path><path d="M255.54 567.26a30.84 30.84 0 1 0 41.13-45.96z" fill="rgba(33, 50, 104, 0.3215686274509804)"></path><path d="M1363.61 203.08 a25.16 25.16 0 1 0 50.32 0 a25.16 25.16 0 1 0 -50.32 0z" fill="rgba(33, 50, 104, 0.3215686274509804)"></path><path d="M782.42 491.01L810.54 491.01L810.54 491.89L782.42 491.89z" fill="rgba(33, 50, 104, 0.3215686274509804)"></path><path d="M538.32 247.37L561.28 247.37L561.28 270.33L538.32 270.33z" stroke="rgba(33, 50, 104, 0.3215686274509804)"></path><path d="M30.7 219.11a5.14 5.14 0 1 0 10.16-1.53z" fill="rgba(33, 50, 104, 0.3215686274509804)"></path><path d="M350.15 282.9 a49.31 49.31 0 1 0 98.62 0 a49.31 49.31 0 1 0 -98.62 0z" stroke="rgba(33, 50, 104, 0.3215686274509804)"></path><path d="M246.5 273.42a16.44 16.44 0 1 0 32.01 7.52z" stroke="rgba(33, 50, 104, 0.3215686274509804)"></path><path d="M660.28 62.06a52.25 52.25 0 1 0-103.92 11z" fill="rgba(33, 50, 104, 0.3215686274509804)"></path><path d="M529.74 86.22L532.08 86.22L532.08 88.56L529.74 88.56z" fill="rgba(33, 50, 104, 0.3215686274509804)"></path><path d="M2.95 358.37 a4.33 4.33 0 1 0 8.66 0 a4.33 4.33 0 1 0 -8.66 0z" stroke="rgba(33, 50, 104, 0.3215686274509804)"></path><path d="M190.05 510.32a54.25 54.25 0 1 0 108.02-10.16z" fill="rgba(33, 50, 104, 0.3215686274509804)"></path><path d="M797.74 394.83L848.8 394.83L848.8 445.89L797.74 445.89z" fill="rgba(33, 50, 104, 0.3215686274509804)"></path><path d="M481.24 181.85L535.72 181.85L535.72 210.45L481.24 210.45z" fill="rgba(33, 50, 104, 0.3215686274509804)"></path><path d="M1333.8 310.22a30.16 30.16 0 1 0-59.95 6.7z" stroke="rgba(33, 50, 104, 0.3215686274509804)"></path><path d="M450.6 329.61L467.26 329.61L467.26 346.27L450.6 346.27z" fill="rgba(33, 50, 104, 0.3215686274509804)"></path><path d="M350.25 416.61L365.73 416.61L365.73 432.09L350.25 432.09z" fill="rgba(33, 50, 104, 0.3215686274509804)"></path><path d="M1387.51 114.31a52.48 52.48 0 1 0 18.65-103.29z" fill="rgba(33, 50, 104, 0.3215686274509804)"></path><path d="M691.4 449.9a0.87 0.87 0 1 0 1.08-1.36z" fill="rgba(33, 50, 104, 0.3215686274509804)"></path><path d="M967.76 104.13L985.56 104.13L985.56 121.93L967.76 121.93z" stroke="rgba(33, 50, 104, 0.3215686274509804)"></path><path d="M1411.39 492.95L1422.69 492.95L1422.69 497.1L1411.39 497.1z" stroke="rgba(33, 50, 104, 0.3215686274509804)"></path><path d="M480.38 260.69a12.86 12.86 0 1 0-11.52 22.99z" fill="rgba(33, 50, 104, 0.3215686274509804)"></path></g><defs><mask id="SvgjsMask1004"><rect width="1440" height="560" fill="#ffffff"></rect></mask></defs></svg>