<svg id="visual" viewBox="0 0 1980 1080" width="1980" height="1080" xmlns="http://www.w3.org/2000/svg" xmlns:xlink="http://www.w3.org/1999/xlink" version="1.1"><g transform="translate(97.7105474108514 98.9795209598135)"><path d="M713.2 -924.1C901.6 -844.7 1016.2 -606 927.2 -411.8C838.2 -217.5 545.6 -67.7 445.5 115.2C345.4 298 437.8 513.9 395.6 528.3C353.5 542.7 176.7 355.8 -31 398.4C-238.6 441 -477.3 713.2 -691.3 754.6C-905.3 796 -1094.6 606.6 -1141.2 388.4C-1187.9 170.3 -1091.8 -76.6 -986.9 -296.2C-881.9 -515.8 -768.1 -708.1 -602.1 -794.9C-436.1 -881.6 -218.1 -862.8 22.1 -893.3C262.3 -923.8 524.7 -1003.5 713.2 -924.1" fill="#213268"></path></g></svg>