<svg id="visual" viewBox="0 0 900 600" width="900" height="600" xmlns="http://www.w3.org/2000/svg" xmlns:xlink="http://www.w3.org/1999/xlink" version="1.1"><path d="M0 511L100 511L100 522L200 522L200 507L300 507L300 517L400 517L400 519L500 519L500 517L600 517L600 532L700 532L700 515L800 515L800 527L900 527L900 531L900 601L900 601L800 601L800 601L700 601L700 601L600 601L600 601L500 601L500 601L400 601L400 601L300 601L300 601L200 601L200 601L100 601L100 601L0 601Z" fill="#070f2b"></path><path d="M0 546L100 546L100 531L200 531L200 532L300 532L300 552L400 552L400 531L500 531L500 553L600 553L600 542L700 542L700 543L800 543L800 540L900 540L900 538L900 601L900 601L800 601L800 601L700 601L700 601L600 601L600 601L500 601L500 601L400 601L400 601L300 601L300 601L200 601L200 601L100 601L100 601L0 601Z" fill="#122148"></path><path d="M0 569L100 569L100 565L200 565L200 562L300 562L300 566L400 566L400 580L500 580L500 568L600 568L600 576L700 576L700 575L800 575L800 575L900 575L900 577L900 601L900 601L800 601L800 601L700 601L700 601L600 601L600 601L500 601L500 601L400 601L400 601L300 601L300 601L200 601L200 601L100 601L100 601L0 601Z" fill="#213268"></path></svg>